<?xml version="1.0" encoding="UTF-8" standalone="no"?>
<!-- Created with Inkscape (http://www.inkscape.org/) -->

<svg
   width="70.196777mm"
   height="27.112387mm"
   viewBox="0 0 70.196778 27.112386"
   version="1.1"
   id="svg1"
   xml:space="preserve"
   xmlns="http://www.w3.org/2000/svg"
   xmlns:svg="http://www.w3.org/2000/svg"><defs
     id="defs1" /><g
     id="g1"
     transform="matrix(0.26458333,0,0,0.26458333,143.26136,-50.942973)"><path
       id="path80"
       d="m -541.46028,193.07169 h 265.31066"
       style="fill:none;stroke:#000000;stroke-width:1.06267;stroke-linecap:butt;stroke-linejoin:miter;stroke-miterlimit:10;stroke-dasharray:none;stroke-opacity:1" /><path
       id="path81"
       d="m -532.11653,206.25035 c 0,0.89062 -0.15625,1.03125 -1.15625,1.0625 v 0.23437 h 3.54687 v -0.23437 c -0.98437,-0.0312 -1.17187,-0.20313 -1.17187,-1.0625 v -5.3125 c 0,-0.875 0.17187,-1.03125 1.17187,-1.07813 v -0.21875 h -3.54687 v 0.21875 c 1.01562,0.0625 1.15625,0.1875 1.15625,1.07813 z m 2.84375,-3.45313 c 0.14062,-0.0469 0.25,-0.0625 0.375,-0.0625 0.3125,0 0.42187,0.20313 0.42187,0.76563 v 3.03125 c 0,0.64062 -0.17187,0.82812 -0.84375,0.84375 v 0.17187 h 2.65625 v -0.17187 c -0.625,-0.0312 -0.8125,-0.15625 -0.8125,-0.625 v -3.375 c 0,-0.0312 0.0937,-0.14063 0.1875,-0.23438 0.29688,-0.26562 0.8125,-0.46875 1.21875,-0.46875 0.53125,0 0.79688,0.42188 0.79688,1.25 v 2.59375 c 0,0.67188 -0.14063,0.79688 -0.8125,0.85938 v 0.17187 h 2.67187 v -0.17187 c -0.67187,-0.0156 -0.85937,-0.21875 -0.85937,-0.96875 v -3 c 0.35937,-0.51563 0.75,-0.73438 1.29687,-0.73438 0.6875,0 0.90625,0.32813 0.90625,1.3125 v 2.51563 c 0,0.6875 -0.0937,0.78125 -0.79687,0.875 v 0.17187 h 2.625 v -0.17187 l -0.3125,-0.0312 c -0.35938,-0.0312 -0.51563,-0.23438 -0.51563,-0.70313 v -2.46875 c 0,-1.40625 -0.46875,-2.125 -1.39062,-2.125 -0.6875,0 -1.29688,0.3125 -1.9375,1 -0.21875,-0.67187 -0.625,-1 -1.26563,-1 -0.53125,0 -0.875,0.17188 -1.85937,0.92188 v -0.89063 l -0.0781,-0.0312 c -0.60937,0.23438 -1.01562,0.35938 -1.67187,0.54688 z m 14.34766,3.96875 c -0.20313,0.15625 -0.34375,0.21875 -0.53125,0.21875 -0.26563,0 -0.34375,-0.17187 -0.34375,-0.6875 v -2.32812 c 0,-0.625 -0.0625,-0.96875 -0.25,-1.26563 -0.26563,-0.42187 -0.78125,-0.65625 -1.48438,-0.65625 -1.125,0 -2,0.59375 -2,1.34375 0,0.26563 0.23438,0.51563 0.51563,0.51563 0.28125,0 0.53125,-0.25 0.53125,-0.5 0,-0.0625 -0.0156,-0.10938 -0.0156,-0.20313 -0.0312,-0.10937 -0.0469,-0.20312 -0.0469,-0.28125 0,-0.32812 0.39062,-0.59375 0.85937,-0.59375 0.59375,0 0.92188,0.35938 0.92188,1 v 0.73438 c -1.84375,0.73437 -2.04688,0.82812 -2.5625,1.28125 -0.26563,0.25 -0.4375,0.65625 -0.4375,1.04687 0,0.75 0.53125,1.28125 1.26562,1.28125 0.51563,0 1.01563,-0.25 1.73438,-0.875 0.0625,0.625 0.28125,0.875 0.76562,0.875 0.40625,0 0.65625,-0.15625 1.07813,-0.60937 z m -1.84375,-0.6875 c 0,0.375 -0.0625,0.48438 -0.3125,0.625 -0.29688,0.15625 -0.625,0.26563 -0.875,0.26563 -0.42188,0 -0.75,-0.40625 -0.75,-0.92188 v -0.0469 c 0,-0.70313 0.48437,-1.125 1.9375,-1.65625 z m 7.49609,-3.17187 v -0.46875 h -0.92188 c -0.25,0 -0.42187,-0.0312 -0.65625,-0.10938 l -0.26562,-0.0937 c -0.32813,-0.125 -0.65625,-0.1875 -0.95313,-0.1875 -1.125,0 -2,0.85938 -2,1.95313 0,0.75 0.3125,1.20312 1.10938,1.59375 -0.23438,0.21875 -0.4375,0.42187 -0.51563,0.48437 -0.39062,0.34375 -0.54687,0.57813 -0.54687,0.82813 0,0.25 0.14062,0.39062 0.625,0.625 -0.84375,0.625 -1.17188,1.01562 -1.17188,1.46875 0,0.625 0.9375,1.15625 2.07813,1.15625 0.89062,0 1.82812,-0.3125 2.45312,-0.8125 0.45313,-0.375 0.65625,-0.75 0.65625,-1.21875 0,-0.73438 -0.5625,-1.23438 -1.45312,-1.26563 l -1.54688,-0.0781 c -0.625,-0.0156 -0.92187,-0.125 -0.92187,-0.32813 0,-0.23437 0.39062,-0.65625 0.71875,-0.75 0.10937,0.0156 0.1875,0.0312 0.21875,0.0312 0.23437,0.0156 0.39062,0.0312 0.45312,0.0312 0.45313,0 0.92188,-0.17187 1.29688,-0.5 0.39062,-0.34375 0.57812,-0.75 0.57812,-1.35937 0,-0.34375 -0.0625,-0.60938 -0.23437,-1 z m -3.875,4.67187 c 0.40625,0.0781 1.35937,0.14063 1.9375,0.14063 1.09375,0 1.48437,0.15625 1.48437,0.59375 0,0.6875 -0.90625,1.15625 -2.25,1.15625 -1.0625,0 -1.75,-0.34375 -1.75,-0.875 0,-0.26563 0.0781,-0.42188 0.57813,-1.01563 z m 0.0625,-4.07812 c 0,-0.70313 0.34375,-1.10938 0.89063,-1.10938 0.375,0 0.67187,0.20313 0.875,0.54688 0.21875,0.42187 0.35937,0.96875 0.35937,1.4375 0,0.67187 -0.35937,1.09375 -0.90625,1.09375 -0.71875,0 -1.21875,-0.78125 -1.21875,-1.92188 z m 9.03907,2.09375 c -0.57813,0.90625 -1.07813,1.25 -1.84376,1.25 -0.6875,0 -1.20312,-0.34375 -1.54687,-1.03125 -0.21875,-0.45313 -0.29687,-0.84375 -0.32813,-1.57813 h 3.6875 c -0.0937,-0.78125 -0.21874,-1.125 -0.51562,-1.5 -0.35938,-0.4375 -0.90625,-0.6875 -1.53125,-0.6875 -0.59375,0 -1.15625,0.21875 -1.60937,0.625 -0.5625,0.48438 -0.89063,1.34375 -0.89063,2.3125 0,1.65625 0.85937,2.6875 2.23437,2.6875 1.14063,0 2.03126,-0.70312 2.53126,-2 z m -3.6875,-1.73438 c 0.125,-0.9375 0.53124,-1.375 1.26562,-1.375 0.71875,0 1.01562,0.32813 1.17188,1.375 z m 10.87499,-0.0625 -0.0469,-1.625 h -0.14062 l -0.0156,0.0156 c -0.10937,0.0937 -0.125,0.0937 -0.17187,0.0937 -0.0625,0 -0.1875,-0.0156 -0.3125,-0.0781 -0.26563,-0.0937 -0.53125,-0.14062 -0.84375,-0.14062 -0.9375,0 -1.625,0.60937 -1.625,1.46875 0,0.67187 0.375,1.14062 1.40625,1.71875 l 0.6875,0.39062 c 0.42187,0.25 0.625,0.53125 0.625,0.90625 0,0.51563 -0.39063,0.85938 -1,0.85938 -0.40625,0 -0.78125,-0.15625 -1,-0.42188 -0.25,-0.29687 -0.35938,-0.57812 -0.51563,-1.25 h -0.1875 v 1.85938 h 0.15625 c 0.0781,-0.125 0.125,-0.14063 0.26563,-0.14063 0.10937,0 0.28125,0.0156 0.5625,0.0937 0.32812,0.0781 0.65625,0.125 0.85937,0.125 0.92188,0 1.6875,-0.70312 1.6875,-1.53125 0,-0.60937 -0.28125,-1 -1,-1.42187 l -1.29687,-0.76563 c -0.32813,-0.20312 -0.51563,-0.5 -0.51563,-0.8125 0,-0.48437 0.375,-0.8125 0.92188,-0.8125 0.6875,0 1.04687,0.40625 1.3125,1.46875 z m 3.86719,-1.75 c -1.54687,0 -2.64062,1.15625 -2.64062,2.79688 0,1.60937 1.10937,2.82812 2.625,2.82812 1.5,0 2.65625,-1.26562 2.65625,-2.92187 0,-1.5625 -1.10938,-2.70313 -2.64063,-2.70313 z m -0.15625,0.34375 c 1.01563,0 1.71875,1.14063 1.71875,2.78125 0,1.34375 -0.54687,2.15625 -1.4375,2.15625 -0.46875,0 -0.90625,-0.28125 -1.15625,-0.76562 -0.34375,-0.625 -0.53125,-1.45313 -0.53125,-2.29688 0,-1.14062 0.5625,-1.875 1.40625,-1.875 z m 8.8711,4.5625 h -0.0469 c -0.5625,0 -0.6875,-0.14062 -0.6875,-0.6875 v -4.09375 h -1.89063 v 0.20313 c 0.75,0.0312 0.89063,0.15625 0.89063,0.75 v 2.8125 c 0,0.32812 -0.0625,0.5 -0.23438,0.625 -0.3125,0.26562 -0.6875,0.40625 -1.04687,0.40625 -0.46875,0 -0.84375,-0.40625 -0.84375,-0.90625 v -3.89063 h -1.75 v 0.15625 c 0.57812,0.0469 0.73437,0.21875 0.73437,0.76563 v 3.01562 c 0,0.95313 0.57813,1.5625 1.45313,1.5625 0.4375,0 0.90625,-0.20312 1.23437,-0.51562 l 0.51563,-0.51563 v 0.98438 l 0.0469,0.0312 c 0.59375,-0.23438 1.01562,-0.375 1.625,-0.54688 z m 0.33593,-4.0625 c 0.17188,-0.0469 0.28125,-0.0469 0.42188,-0.0469 0.29687,0 0.40625,0.1875 0.40625,0.70312 v 3 c 0,0.59375 -0.0781,0.67188 -0.84375,0.82813 v 0.17187 h 2.85937 v -0.17187 c -0.8125,-0.0469 -1.01562,-0.21875 -1.01562,-0.90625 v -2.6875 c 0,-0.375 0.51562,-0.98438 0.84375,-0.98438 0.0781,0 0.17187,0.0625 0.3125,0.1875 0.1875,0.15625 0.3125,0.23438 0.46875,0.23438 0.29687,0 0.46875,-0.20313 0.46875,-0.53125 0,-0.40625 -0.25,-0.64063 -0.65625,-0.64063 -0.5,0 -0.84375,0.28125 -1.4375,1.125 v -1.09375 l -0.0469,-0.0312 c -0.64063,0.26563 -1.07813,0.42188 -1.78125,0.64063 z m 8.65235,2.79688 c -0.5625,0.82812 -1,1.125 -1.67188,1.125 -1.09375,0 -1.85937,-0.96875 -1.85937,-2.34375 0,-1.21875 0.65625,-2.07813 1.625,-2.07813 0.4375,0 0.59375,0.14063 0.70312,0.57813 l 0.0781,0.26562 c 0.0937,0.32813 0.3125,0.54688 0.5625,0.54688 0.3125,0 0.5625,-0.23438 0.5625,-0.5 0,-0.67188 -0.82812,-1.23438 -1.82812,-1.23438 -0.59375,0 -1.20313,0.23438 -1.6875,0.67188 -0.59375,0.53125 -0.9375,1.34375 -0.9375,2.28125 0,1.5625 0.95312,2.67187 2.26562,2.67187 0.54688,0 1.01563,-0.20312 1.45313,-0.5625 0.32812,-0.29687 0.54687,-0.60937 0.90625,-1.3125 z m 5.43359,-0.0937 c -0.57812,0.90625 -1.07812,1.25 -1.84375,1.25 -0.6875,0 -1.20312,-0.34375 -1.54687,-1.03125 -0.21875,-0.45313 -0.29688,-0.84375 -0.32813,-1.57813 h 3.6875 c -0.0937,-0.78125 -0.21875,-1.125 -0.51563,-1.5 -0.35937,-0.4375 -0.90624,-0.6875 -1.53124,-0.6875 -0.59375,0 -1.15625,0.21875 -1.60938,0.625 -0.5625,0.48438 -0.89062,1.34375 -0.89062,2.3125 0,1.65625 0.85937,2.6875 2.23437,2.6875 1.14063,0 2.03125,-0.70312 2.53125,-2 z m -3.6875,-1.73438 c 0.125,-0.9375 0.53125,-1.375 1.26563,-1.375 0.71875,0 1.01562,0.32813 1.17187,1.375 z m 27.93359,3.45313 c -0.45312,-0.0312 -0.6875,-0.14063 -1.03125,-0.54688 l -2.46874,-3.03125 c 0.79688,-0.15625 1.15625,-0.29687 1.54688,-0.625 0.39062,-0.3125 0.60937,-0.8125 0.60937,-1.375 0,-0.51562 -0.14062,-0.95312 -0.45312,-1.29687 -0.45313,-0.5 -1.45313,-0.79688 -2.57813,-0.79688 h -3.29687 v 0.21875 c 0.89062,0.0937 1.01562,0.23438 1.01562,1.07813 v 5.17187 c 0,1 -0.125,1.14063 -1.01562,1.20313 v 0.23437 h 3.3125 v -0.23437 c -0.92188,-0.0469 -1.07813,-0.20313 -1.07813,-1.0625 v -2.35938 l 0.67188,-0.0312 2.84375,3.6875 h 1.92187 z m -5.43749,-6.8125 c 0,-0.32813 0.125,-0.42188 0.60938,-0.42188 1.5,0 2.1875,0.51563 2.1875,1.64063 0,0.59375 -0.25,1.09375 -0.6875,1.32812 -0.54688,0.29688 -0.96875,0.375 -2.10938,0.40625 z m 10.41016,5.09375 c -0.57813,0.90625 -1.07813,1.25 -1.84375,1.25 -0.6875,0 -1.20313,-0.34375 -1.54688,-1.03125 -0.21875,-0.45313 -0.29687,-0.84375 -0.32812,-1.57813 h 3.6875 c -0.0937,-0.78125 -0.21875,-1.125 -0.51563,-1.5 -0.35937,-0.4375 -0.90625,-0.6875 -1.53125,-0.6875 -0.59375,0 -1.15625,0.21875 -1.60937,0.625 -0.5625,0.48438 -0.89063,1.34375 -0.89063,2.3125 0,1.65625 0.85938,2.6875 2.23438,2.6875 1.14062,0 2.03125,-0.70312 2.53125,-2 z m -3.6875,-1.73438 c 0.125,-0.9375 0.53125,-1.375 1.26562,-1.375 0.71875,0 1.01563,0.32813 1.17188,1.375 z m 9.40234,2.90625 c -0.20313,0.15625 -0.34375,0.21875 -0.53125,0.21875 -0.26562,0 -0.34375,-0.17187 -0.34375,-0.6875 v -2.32812 c 0,-0.625 -0.0625,-0.96875 -0.25,-1.26563 -0.26563,-0.42187 -0.78125,-0.65625 -1.48437,-0.65625 -1.125,0 -2,0.59375 -2,1.34375 0,0.26563 0.23437,0.51563 0.51562,0.51563 0.28125,0 0.53125,-0.25 0.53125,-0.5 0,-0.0625 -0.0156,-0.10938 -0.0156,-0.20313 -0.0312,-0.10937 -0.0469,-0.20312 -0.0469,-0.28125 0,-0.32812 0.39063,-0.59375 0.85938,-0.59375 0.59375,0 0.92187,0.35938 0.92187,1 v 0.73438 c -1.84375,0.73437 -2.04687,0.82812 -2.5625,1.28125 -0.26562,0.25 -0.4375,0.65625 -0.4375,1.04687 0,0.75 0.53125,1.28125 1.26563,1.28125 0.51562,0 1.01562,-0.25 1.73437,-0.875 0.0625,0.625 0.28125,0.875 0.76563,0.875 0.40625,0 0.65625,-0.15625 1.07812,-0.60937 z m -1.84375,-0.6875 c 0,0.375 -0.0625,0.48438 -0.3125,0.625 -0.29688,0.15625 -0.625,0.26563 -0.875,0.26563 -0.42188,0 -0.75,-0.40625 -0.75,-0.92188 v -0.0469 c 0,-0.70313 0.48438,-1.125 1.9375,-1.65625 z m 2.10547,-5.98437 h 0.0625 c 0.14063,0 0.28125,-0.0156 0.375,-0.0156 0.375,0 0.5,0.17188 0.5,0.73438 v 5.6875 c 0,0.65625 -0.17187,0.8125 -0.92187,0.875 v 0.17187 h 2.82812 v -0.17187 c -0.76562,-0.0625 -0.90625,-0.17188 -0.90625,-0.82813 v -7.14062 l -0.0469,-0.0156 c -0.625,0.20313 -1.07812,0.3125 -1.89062,0.51563 z m 5.18359,1.95312 -1.85937,0.65625 v 0.1875 l 0.0937,-0.0156 c 0.15625,-0.0312 0.3125,-0.0312 0.40625,-0.0312 0.29688,0 0.40625,0.1875 0.40625,0.70312 v 2.78125 c 0,0.85938 -0.125,0.98438 -0.95312,1.04688 v 0.17187 h 2.84375 v -0.17187 c -0.79688,-0.0625 -0.89063,-0.1875 -0.89063,-1.04688 v -4.25 z m -0.5625,-2.65625 c -0.32812,0 -0.59375,0.26563 -0.59375,0.60938 0,0.32812 0.25,0.60937 0.59375,0.60937 0.34375,0 0.625,-0.26562 0.625,-0.60937 0,-0.34375 -0.28125,-0.60938 -0.625,-0.60938 z m 5.55469,4.40625 -0.0469,-1.625 h -0.14063 l -0.0156,0.0156 c -0.10938,0.0937 -0.125,0.0937 -0.17188,0.0937 -0.0625,0 -0.1875,-0.0156 -0.3125,-0.0781 -0.26562,-0.0937 -0.53125,-0.14062 -0.84375,-0.14062 -0.9375,0 -1.625,0.60937 -1.625,1.46875 0,0.67187 0.375,1.14062 1.40625,1.71875 l 0.6875,0.39062 c 0.42188,0.25 0.625,0.53125 0.625,0.90625 0,0.51563 -0.39062,0.85938 -1,0.85938 -0.40625,0 -0.78125,-0.15625 -1,-0.42188 -0.25,-0.29687 -0.35937,-0.57812 -0.51562,-1.25 h -0.1875 v 1.85938 h 0.15625 c 0.0781,-0.125 0.125,-0.14063 0.26562,-0.14063 0.10938,0 0.28125,0.0156 0.5625,0.0937 0.32813,0.0781 0.65625,0.125 0.85938,0.125 0.92187,0 1.6875,-0.70312 1.6875,-1.53125 0,-0.60937 -0.28125,-1 -1,-1.42187 l -1.29688,-0.76563 c -0.32812,-0.20312 -0.51562,-0.5 -0.51562,-0.8125 0,-0.48437 0.375,-0.8125 0.92187,-0.8125 0.6875,0 1.04688,0.40625 1.3125,1.46875 z m 3.93359,-1.625 h -1.20312 v -1.39062 c 0,-0.125 -0.0156,-0.15625 -0.0937,-0.15625 -0.0781,0.10937 -0.14062,0.21875 -0.23437,0.32812 -0.45313,0.67188 -0.96875,1.23438 -1.15625,1.28125 -0.125,0.0937 -0.20313,0.17188 -0.20313,0.23438 0,0.0312 0.0156,0.0625 0.0469,0.0781 h 0.64062 v 3.59375 c 0,1.01563 0.34376,1.53125 1.0625,1.53125 0.57813,0 1.03126,-0.29687 1.42188,-0.90625 l -0.15625,-0.14062 c -0.25,0.29687 -0.45313,0.42187 -0.70313,0.42187 -0.45312,0 -0.625,-0.32812 -0.625,-1.07812 v -3.42188 h 1.20313 z m 2.3711,-0.125 -1.85938,0.65625 v 0.1875 l 0.0937,-0.0156 c 0.15625,-0.0312 0.3125,-0.0312 0.40625,-0.0312 0.29687,0 0.40625,0.1875 0.40625,0.70312 v 2.78125 c 0,0.85938 -0.125,0.98438 -0.95313,1.04688 v 0.17187 h 2.84375 v -0.17187 c -0.79687,-0.0625 -0.89062,-0.1875 -0.89062,-1.04688 v -4.25 z m -0.5625,-2.65625 c -0.32813,0 -0.59375,0.26563 -0.59375,0.60938 0,0.32812 0.25,0.60937 0.59375,0.60937 0.34375,0 0.625,-0.26562 0.625,-0.60937 0,-0.34375 -0.28125,-0.60938 -0.625,-0.60938 z m 6.54297,6.29688 c -0.5625,0.82812 -1,1.125 -1.67188,1.125 -1.09375,0 -1.85937,-0.96875 -1.85937,-2.34375 0,-1.21875 0.65625,-2.07813 1.625,-2.07813 0.4375,0 0.59375,0.14063 0.70312,0.57813 l 0.0781,0.26562 c 0.0937,0.32813 0.3125,0.54688 0.5625,0.54688 0.3125,0 0.5625,-0.23438 0.5625,-0.5 0,-0.67188 -0.82813,-1.23438 -1.82813,-1.23438 -0.59374,0 -1.20312,0.23438 -1.6875,0.67188 -0.59374,0.53125 -0.9375,1.34375 -0.9375,2.28125 0,1.5625 0.95313,2.67187 2.26563,2.67187 0.54687,0 1.01563,-0.20312 1.45313,-0.5625 0.32812,-0.29687 0.54687,-0.60937 0.90624,-1.3125 z m 21.83593,-6.21875 h -0.25 c -0.0469,0.26562 -0.18749,0.40625 -0.39063,0.40625 -0.10933,0 -0.31249,-0.0469 -0.51562,-0.14063 -0.45312,-0.17187 -0.89062,-0.26562 -1.26562,-0.26562 -0.51562,0 -1.04688,0.20312 -1.4375,0.54687 -0.42188,0.375 -0.64063,0.875 -0.64063,1.5 0,0.95313 0.53125,1.625 1.875,2.32813 0.85937,0.45312 1.48437,0.9375 1.78125,1.39062 0.10934,0.15625 0.15626,0.40625 0.15626,0.70313 0,0.79687 -0.59376,1.34375 -1.46876,1.34375 -1.0625,0 -1.8125,-0.65625 -2.40624,-2.10938 h -0.28126 l 0.35938,2.53125 h 0.26562 c 0.0156,-0.23437 0.15626,-0.39062 0.32812,-0.39062 0.14063,0 0.34376,0.0469 0.56251,0.125 0.45312,0.1875 0.93749,0.28125 1.42187,0.28125 1.375,0 2.4375,-0.95313 2.4375,-2.1875 0,-0.96875 -0.65625,-1.75 -2.23437,-2.59375 -1.26563,-0.70313 -1.76563,-1.21875 -1.76563,-1.875 0,-0.65625 0.5,-1.10938 1.25,-1.10938 0.53126,0 1.03126,0.23438 1.45312,0.65625 0.375,0.39063 0.53126,0.70313 0.73438,1.40625 h 0.29688 z m 6.05469,6.21875 c -0.5625,0.82812 -1,1.125 -1.67188,1.125 -1.09374,0 -1.85937,-0.96875 -1.85937,-2.34375 0,-1.21875 0.65625,-2.07813 1.625,-2.07813 0.43751,0 0.59375,0.14063 0.70312,0.57813 l 0.0781,0.26562 c 0.0937,0.32813 0.3125,0.54688 0.5625,0.54688 0.3125,0 0.5625,-0.23438 0.5625,-0.5 0,-0.67188 -0.82813,-1.23438 -1.82813,-1.23438 -0.59375,0 -1.20312,0.23438 -1.68749,0.67188 -0.59375,0.53125 -0.93751,1.34375 -0.93751,2.28125 0,1.5625 0.95313,2.67187 2.26563,2.67187 0.54688,0 1.01562,-0.20312 1.45313,-0.5625 0.32812,-0.29687 0.54687,-0.60937 0.90624,-1.3125 z m 5.83984,1.07812 c -0.20312,0.15625 -0.34374,0.21875 -0.53125,0.21875 -0.26563,0 -0.34375,-0.17187 -0.34375,-0.6875 v -2.32812 c 0,-0.625 -0.0625,-0.96875 -0.25,-1.26563 -0.26562,-0.42187 -0.78125,-0.65625 -1.48437,-0.65625 -1.125,0 -2,0.59375 -2,1.34375 0,0.26563 0.23437,0.51563 0.51563,0.51563 0.28125,0 0.53125,-0.25 0.53125,-0.5 0,-0.0625 -0.0156,-0.10938 -0.0156,-0.20313 -0.0312,-0.10937 -0.0469,-0.20312 -0.0469,-0.28125 0,-0.32812 0.39062,-0.59375 0.85937,-0.59375 0.59375,0 0.92188,0.35938 0.92188,1 v 0.73438 c -1.84375,0.73437 -2.04688,0.82812 -2.56251,1.28125 -0.26562,0.25 -0.43749,0.65625 -0.43749,1.04687 0,0.75 0.53125,1.28125 1.26563,1.28125 0.51562,0 1.01562,-0.25 1.73437,-0.875 0.0625,0.625 0.28125,0.875 0.76563,0.875 0.40624,0 0.65624,-0.15625 1.07812,-0.60937 z m -1.84374,-0.6875 c 0,0.375 -0.0625,0.48438 -0.31251,0.625 -0.29687,0.15625 -0.625,0.26563 -0.875,0.26563 -0.42187,0 -0.75,-0.40625 -0.75,-0.92188 v -0.0469 c 0,-0.70313 0.48437,-1.125 1.93751,-1.65625 z m 2.10546,-5.98437 h 0.0625 c 0.14062,0 0.28125,-0.0156 0.375,-0.0156 0.375,0 0.5,0.17188 0.5,0.73438 v 5.6875 c 0,0.65625 -0.17187,0.8125 -0.92187,0.875 v 0.17187 h 2.82812 v -0.17187 c -0.76563,-0.0625 -0.90625,-0.17188 -0.90625,-0.82813 v -7.14062 l -0.0469,-0.0156 c -0.625,0.20313 -1.07813,0.3125 -1.89062,0.51563 z m 8.36719,6.67187 c -0.20312,0.15625 -0.34375,0.21875 -0.53125,0.21875 -0.26563,0 -0.34375,-0.17187 -0.34375,-0.6875 v -2.32812 c 0,-0.625 -0.0625,-0.96875 -0.25,-1.26563 -0.26563,-0.42187 -0.78125,-0.65625 -1.48437,-0.65625 -1.125,0 -2,0.59375 -2,1.34375 0,0.26563 0.23437,0.51563 0.51562,0.51563 0.28126,0 0.53126,-0.25 0.53126,-0.5 0,-0.0625 -0.0156,-0.10938 -0.0156,-0.20313 -0.0312,-0.10937 -0.0469,-0.20312 -0.0469,-0.28125 0,-0.32812 0.39063,-0.59375 0.85938,-0.59375 0.59374,0 0.92188,0.35938 0.92188,1 v 0.73438 c -1.84375,0.73437 -2.04688,0.82812 -2.56251,1.28125 -0.26563,0.25 -0.43749,0.65625 -0.43749,1.04687 0,0.75 0.53125,1.28125 1.26562,1.28125 0.51563,0 1.01563,-0.25 1.73438,-0.875 0.0625,0.625 0.28125,0.875 0.76562,0.875 0.40624,0 0.65624,-0.15625 1.07812,-0.60937 z m -1.84375,-0.6875 c 0,0.375 -0.0625,0.48438 -0.3125,0.625 -0.29687,0.15625 -0.625,0.26563 -0.875,0.26563 -0.42187,0 -0.75,-0.40625 -0.75,-0.92188 v -0.0469 c 0,-0.70313 0.48437,-1.125 1.9375,-1.65625 z m 3.69922,-6.67187 -0.0625,-0.0156 c -0.5,0.17188 -0.82813,0.26563 -1.39062,0.42188 l -0.34375,0.0937 v 0.1875 c 0.0781,0 0.12493,0 0.20312,0 0.48437,0 0.59375,0.10937 0.59375,0.60937 v 6.20312 c 0,0.35938 1.01562,0.76563 1.96874,0.76563 1.57814,0 2.79688,-1.3125 2.79688,-3.03125 0,-1.46875 -0.90625,-2.59375 -2.10937,-2.59375 -0.71875,0 -1.42188,0.4375 -1.65625,1.01563 z m 0,4.29687 c 0,-0.46875 0.5625,-0.90625 1.1875,-0.90625 0.92187,0 1.53124,0.9375 1.53124,2.39063 0,1.32812 -0.57812,2.09375 -1.56249,2.09375 -0.625,0 -1.15625,-0.26563 -1.15625,-0.57813 z m 4.38281,-3.60937 h 0.0625 c 0.14063,0 0.28124,-0.0156 0.375,-0.0156 0.375,0 0.5,0.17188 0.5,0.73438 v 5.6875 c 0,0.65625 -0.17188,0.8125 -0.92188,0.875 v 0.17187 h 2.82812 v -0.17187 c -0.76561,-0.0625 -0.90624,-0.17188 -0.90624,-0.82813 v -7.14062 l -0.0469,-0.0156 c -0.625,0.20313 -1.07812,0.3125 -1.89063,0.51563 z m 7.96484,5.5 c -0.57812,0.90625 -1.07812,1.25 -1.84375,1.25 -0.68749,0 -1.20312,-0.34375 -1.54686,-1.03125 -0.21876,-0.45313 -0.29688,-0.84375 -0.32814,-1.57813 h 3.68751 c -0.0937,-0.78125 -0.21876,-1.125 -0.51563,-1.5 -0.35937,-0.4375 -0.90625,-0.6875 -1.53125,-0.6875 -0.59375,0 -1.15625,0.21875 -1.60937,0.625 -0.56251,0.48438 -0.89063,1.34375 -0.89063,2.3125 0,1.65625 0.85937,2.6875 2.23437,2.6875 1.14063,0 2.03126,-0.70312 2.53126,-2 z m -3.68749,-1.73438 c 0.12493,-0.9375 0.53125,-1.375 1.26562,-1.375 0.71875,0 1.01563,0.32813 1.17187,1.375 z m 27.47655,-1.6875 -0.10933,-2.70312 h -0.25 c -0.0625,0.25 -0.25,0.39062 -0.5,0.39062 -0.10933,0 -0.28125,-0.0312 -0.46875,-0.10937 -0.57813,-0.1875 -1.17188,-0.28125 -1.73437,-0.28125 -0.98439,0 -1.98439,0.375 -2.71876,1.03125 -0.84374,0.73437 -1.29686,1.84375 -1.29686,3.15625 0,1.125 0.35937,2.14062 0.96874,2.82812 0.71875,0.78125 1.82812,1.23438 3,1.23438 1.35937,0 2.54688,-0.54688 3.26563,-1.51563 l -0.21875,-0.21875 c -0.875,0.84375 -1.67188,1.20313 -2.65625,1.20313 -0.75,0 -1.42188,-0.23438 -1.93751,-0.6875 -0.65624,-0.59375 -1.03124,-1.67188 -1.03124,-3 0,-2.15625 1.10937,-3.5625 2.84375,-3.5625 0.68749,0 1.31249,0.26562 1.78125,0.73437 0.39061,0.39063 0.56249,0.71875 0.79687,1.5 z m 3.55079,-0.125 c -1.54688,0 -2.64063,1.15625 -2.64063,2.79688 0,1.60937 1.10938,2.82812 2.625,2.82812 1.5,0 2.65626,-1.26562 2.65626,-2.92187 0,-1.5625 -1.10939,-2.70313 -2.64063,-2.70313 z m -0.15625,0.34375 c 1.01562,0 1.71874,1.14063 1.71874,2.78125 0,1.34375 -0.54686,2.15625 -1.43749,2.15625 -0.46876,0 -0.90625,-0.28125 -1.15625,-0.76562 -0.34375,-0.625 -0.53126,-1.45313 -0.53126,-2.29688 0,-1.14062 0.56251,-1.875 1.40626,-1.875 z m 3.33984,0.40625 c 0.0781,-0.0469 0.1875,-0.0625 0.32813,-0.0625 0.32812,0 0.43749,0.1875 0.43749,0.76563 v 2.96875 c 0,0.6875 -0.12493,0.84375 -0.73437,0.90625 v 0.17187 h 2.53125 v -0.17187 c -0.60937,-0.0625 -0.79688,-0.20313 -0.79688,-0.625 v -3.35938 c 0.57812,-0.54687 0.84375,-0.6875 1.23438,-0.6875 0.59374,0 0.875,0.375 0.875,1.15625 v 2.5 c 0,0.75 -0.15626,0.95313 -0.75,1.01563 v 0.17187 h 2.48437 v -0.17187 c -0.57812,-0.0625 -0.73437,-0.20313 -0.73437,-0.79688 v -2.73437 c 0,-1.125 -0.51563,-1.79688 -1.40626,-1.79688 -0.54686,0 -0.92186,0.20313 -1.73437,0.96875 v -0.9375 l -0.0781,-0.0312 c -0.59375,0.21875 -1,0.34375 -1.65626,0.54688 z m 8.83594,-0.625 h -1.20313 v -1.39062 c 0,-0.125 -0.0156,-0.15625 -0.0937,-0.15625 -0.0781,0.10937 -0.14063,0.21875 -0.23438,0.32812 -0.45313,0.67188 -0.96874,1.23438 -1.15625,1.28125 -0.12493,0.0937 -0.20312,0.17188 -0.20312,0.23438 0,0.0312 0.0156,0.0625 0.0469,0.0781 h 0.64063 v 3.59375 c 0,1.01563 0.34375,1.53125 1.06251,1.53125 0.57812,0 1.03124,-0.29687 1.42186,-0.90625 l -0.15624,-0.14062 c -0.25,0.29687 -0.45313,0.42187 -0.70313,0.42187 -0.45312,0 -0.625,-0.32812 -0.625,-1.07812 v -3.42188 h 1.20313 z m 2.3711,-0.125 -1.85939,0.65625 v 0.1875 l 0.0937,-0.0156 c 0.15624,-0.0312 0.3125,-0.0312 0.40624,-0.0312 0.29688,0 0.40626,0.1875 0.40626,0.70312 v 2.78125 c 0,0.85938 -0.12494,0.98438 -0.95312,1.04688 v 0.17187 h 2.84374 v -0.17187 c -0.79688,-0.0625 -0.89062,-0.1875 -0.89062,-1.04688 v -4.25 z m -0.56251,-2.65625 c -0.32812,0 -0.59375,0.26563 -0.59375,0.60938 0,0.32812 0.25,0.60937 0.59375,0.60937 0.34375,0 0.625,-0.26562 0.625,-0.60937 0,-0.34375 -0.28125,-0.60938 -0.625,-0.60938 z m 1.98047,3.40625 c 0.0781,-0.0469 0.1875,-0.0625 0.32813,-0.0625 0.32812,0 0.43749,0.1875 0.43749,0.76563 v 2.96875 c 0,0.6875 -0.12493,0.84375 -0.73437,0.90625 v 0.17187 h 2.53125 v -0.17187 c -0.60937,-0.0625 -0.79688,-0.20313 -0.79688,-0.625 v -3.35938 c 0.57812,-0.54687 0.84375,-0.6875 1.23438,-0.6875 0.59374,0 0.875,0.375 0.875,1.15625 v 2.5 c 0,0.75 -0.15626,0.95313 -0.75,1.01563 v 0.17187 h 2.48437 v -0.17187 c -0.57812,-0.0625 -0.73437,-0.20313 -0.73437,-0.79688 v -2.73437 c 0,-1.125 -0.51563,-1.79688 -1.40626,-1.79688 -0.54686,0 -0.92186,0.20313 -1.73437,0.96875 v -0.9375 l -0.0781,-0.0312 c -0.59375,0.21875 -1,0.34375 -1.65626,0.54688 z m 11.50781,4.15625 h -0.0469 c -0.56251,0 -0.68751,-0.14062 -0.68751,-0.6875 v -4.09375 h -1.89063 v 0.20313 c 0.75,0.0312 0.89063,0.15625 0.89063,0.75 v 2.8125 c 0,0.32812 -0.0625,0.5 -0.23437,0.625 -0.31251,0.26562 -0.68751,0.40625 -1.04688,0.40625 -0.46875,0 -0.84375,-0.40625 -0.84375,-0.90625 v -3.89063 h -1.75 v 0.15625 c 0.57812,0.0469 0.73437,0.21875 0.73437,0.76563 v 3.01562 c 0,0.95313 0.57814,1.5625 1.45314,1.5625 0.43749,0 0.90624,-0.20312 1.23437,-0.51562 l 0.51563,-0.51563 v 0.98438 l 0.0469,0.0312 c 0.59375,-0.23438 1.01563,-0.375 1.625,-0.54688 z m 3.24219,-4.90625 c -1.54687,0 -2.64063,1.15625 -2.64063,2.79688 0,1.60937 1.10937,2.82812 2.625,2.82812 1.5,0 2.65625,-1.26562 2.65625,-2.92187 0,-1.5625 -1.10937,-2.70313 -2.64062,-2.70313 z m -0.15626,0.34375 c 1.01563,0 1.71876,1.14063 1.71876,2.78125 0,1.34375 -0.54688,2.15625 -1.4375,2.15625 -0.46875,0 -0.90626,-0.28125 -1.15626,-0.76562 -0.34374,-0.625 -0.53124,-1.45313 -0.53124,-2.29688 0,-1.14062 0.5625,-1.875 1.40624,-1.875 z m 8.8672,4.5625 h -0.0469 c -0.56251,0 -0.68751,-0.14062 -0.68751,-0.6875 v -4.09375 h -1.89061 v 0.20313 c 0.75,0.0312 0.89061,0.15625 0.89061,0.75 v 2.8125 c 0,0.32812 -0.0625,0.5 -0.23437,0.625 -0.31249,0.26562 -0.68749,0.40625 -1.04687,0.40625 -0.46876,0 -0.84376,-0.40625 -0.84376,-0.90625 v -3.89063 h -1.75 v 0.15625 c 0.57814,0.0469 0.73439,0.21875 0.73439,0.76563 v 3.01562 c 0,0.95313 0.57812,1.5625 1.45312,1.5625 0.43749,0 0.90625,-0.20312 1.23437,-0.51562 l 0.51563,-0.51563 v 0.98438 l 0.0469,0.0312 c 0.59375,-0.23438 1.01562,-0.375 1.625,-0.54688 z m 4.02734,-3.15625 -0.0469,-1.625 h -0.14062 l -0.0156,0.0156 c -0.10934,0.0937 -0.12494,0.0937 -0.17188,0.0937 -0.0625,0 -0.1875,-0.0156 -0.3125,-0.0781 -0.26562,-0.0937 -0.53125,-0.14062 -0.84374,-0.14062 -0.93751,0 -1.625,0.60937 -1.625,1.46875 0,0.67187 0.375,1.14062 1.40624,1.71875 l 0.6875,0.39062 c 0.42187,0.25 0.625,0.53125 0.625,0.90625 0,0.51563 -0.39062,0.85938 -1,0.85938 -0.40625,0 -0.78125,-0.15625 -1,-0.42188 -0.25,-0.29687 -0.35937,-0.57812 -0.51562,-1.25 h -0.18751 v 1.85938 h 0.15625 c 0.0781,-0.125 0.12494,-0.14063 0.26563,-0.14063 0.10933,0 0.28125,0.0156 0.56251,0.0937 0.32812,0.0781 0.65624,0.125 0.85937,0.125 0.92187,0 1.68749,-0.70312 1.68749,-1.53125 0,-0.60937 -0.28125,-1 -1,-1.42187 l -1.29686,-0.76563 c -0.32814,-0.20312 -0.51563,-0.5 -0.51563,-0.8125 0,-0.48437 0.375,-0.8125 0.92187,-0.8125 0.6875,0 1.04688,0.40625 1.3125,1.46875 z m 0,0"
       style="fill:#000000;fill-opacity:1;fill-rule:nonzero;stroke:none;stroke-width:1.33333"
       aria-label="ImagesourceRealisticScalableContinuous" /><path
       id="path82"
       d="m -541.46028,214.55302 h 265.31066"
       style="fill:none;stroke:#000000;stroke-width:0.664;stroke-linecap:butt;stroke-linejoin:miter;stroke-miterlimit:10;stroke-dasharray:none;stroke-opacity:1" /><g
       id="g82"
       aria-label="Human✓&#10;Synthetic✓✓&#10;Rendered✓✓&#10;Gen.T2I✓✓&#10;Ours✓✓✓"
       transform="matrix(1.3333333,0,0,1.3333333,-533.48961,228.83036)"><path
         id="path83"
         d="m 1.8735625,-3.2240703 v -1.734375 c 0,-0.6445313 0.09375,-0.75 0.7851563,-0.8085938 V -5.9311016 H 0.17434375 v 0.1640625 C 0.85403125,-5.7084453 0.9595,-5.6029766 0.9595,-4.9584453 v 3.8789062 c 0,0.75000004 -0.09375,0.86718754 -0.78515625,0.90234379 v 0.17578125 H 2.6587188 V -0.17719531 C 1.99075,-0.22407031 1.8735625,-0.34125781 1.8735625,-0.97407031 V -2.8256328 h 2.71875 v 1.7460937 c 0,0.75000004 -0.09375,0.86718754 -0.796875,0.90234379 v 0.17578125 H 6.2915313 V -0.17719531 C 5.6235625,-0.22407031 5.506375,-0.34125781 5.506375,-0.97407031 V -4.9584453 c 0,-0.6445313 0.09375,-0.75 0.7851563,-0.8085938 V -5.9311016 H 3.7954375 v 0.1640625 c 0.6914063,0.058594 0.796875,0.1640625 0.796875,0.8085938 v 1.734375 z m 8.8886715,2.77734374 h -0.03516 c -0.421875,0 -0.515625,-0.10546875 -0.515625,-0.515625 V -4.0326641 H 8.7934844 v 0.1523438 c 0.5625,0.023437 0.6679687,0.1171875 0.6679687,0.5625 v 2.109375 c 0,0.24609374 -0.046875,0.37499999 -0.1757812,0.46874999 -0.234375,0.19921875 -0.515625,0.3046875 -0.7851563,0.3046875 -0.3515625,0 -0.6328125,-0.3046875 -0.6328125,-0.67968749 v -2.9179688 h -1.3125 v 0.1171875 c 0.4335938,0.035156 0.5507813,0.1640625 0.5507813,0.5742188 v 2.2617187 c 0,0.71484379 0.4335937,1.17187504 1.0898437,1.17187504 0.328125,0 0.6796875,-0.15234375 0.9257813,-0.38671875 l 0.3867187,-0.38671875 v 0.73828125 l 0.035156,0.0234375 c 0.4453125,-0.17578125 0.7617189,-0.28125 1.2187499,-0.41015625 z m 0.369141,-3.11718754 c 0.105469,-0.035156 0.1875,-0.046875 0.28125,-0.046875 0.234375,0 0.316406,0.1523438 0.316406,0.5742188 v 2.27343749 c 0,0.48046875 -0.128906,0.62109375 -0.632812,0.6328125 v 0.12890625 h 1.992187 v -0.12890625 c -0.46875,-0.0234375 -0.609375,-0.1171875 -0.609375,-0.46875 V -3.1303203 c 0,-0.023437 0.07031,-0.1054688 0.140625,-0.1757813 0.222657,-0.1992187 0.609375,-0.3515625 0.914063,-0.3515625 0.398437,0 0.597656,0.3164063 0.597656,0.9375 v 1.94531254 c 0,0.50390625 -0.105469,0.59765625 -0.609375,0.64453125 v 0.12890625 h 2.003906 V -0.13032031 C 15.022,-0.14203906 14.881375,-0.29438281 14.881375,-0.85688281 V -3.1068828 c 0.269531,-0.3867188 0.5625,-0.5507813 0.972656,-0.5507813 0.515625,0 0.679688,0.2460938 0.679688,0.984375 v 1.88671879 c 0,0.515625 -0.07031,0.5859375 -0.597656,0.65625 v 0.12890625 h 1.96875 v -0.12890625 l -0.234375,-0.0234375 c -0.269532,-0.0234375 -0.386719,-0.17578125 -0.386719,-0.52734375 V -2.5326641 c 0,-1.0546875 -0.351563,-1.59375 -1.042969,-1.59375 -0.515625,0 -0.972656,0.234375 -1.453125,0.75 -0.164062,-0.5039062 -0.46875,-0.75 -0.949219,-0.75 -0.398437,0 -0.65625,0.1289063 -1.394531,0.6914063 v -0.6679688 l -0.05859,-0.023437 c -0.457031,0.1757813 -0.761718,0.2695313 -1.253906,0.4101563 z m 10.763672,2.97656254 c -0.152344,0.1171875 -0.257813,0.1640625 -0.398438,0.1640625 -0.199218,0 -0.257812,-0.12890625 -0.257812,-0.515625 V -2.6850078 c 0,-0.46875 -0.04687,-0.7265625 -0.1875,-0.9492188 -0.199219,-0.3164062 -0.585938,-0.4921875 -1.113281,-0.4921875 -0.84375,0 -1.5,0.4453125 -1.5,1.0078125 0,0.1992188 0.175781,0.3867188 0.386718,0.3867188 0.210938,0 0.398438,-0.1875 0.398438,-0.375 0,-0.046875 -0.01172,-0.082031 -0.01172,-0.1523438 -0.02344,-0.082031 -0.03516,-0.1523437 -0.03516,-0.2109375 0,-0.2460937 0.292969,-0.4453125 0.644531,-0.4453125 0.445313,0 0.691406,0.2695313 0.691406,0.75 v 0.5507813 c -1.382812,0.5507812 -1.535156,0.6210937 -1.921875,0.9609375 -0.199218,0.1875 -0.328125,0.4921875 -0.328125,0.78515624 0,0.5625 0.398438,0.9609375 0.949219,0.9609375 0.386719,0 0.761719,-0.1875 1.300781,-0.65625 0.04687,0.46875 0.210938,0.65625 0.574219,0.65625 0.304688,0 0.492188,-0.1171875 0.808594,-0.45703125 z M 20.512234,-1.1029766 c 0,0.28125004 -0.04687,0.36328129 -0.234375,0.46875004 -0.222656,0.1171875 -0.46875,0.19921875 -0.65625,0.19921875 -0.316406,0 -0.5625,-0.3046875 -0.5625,-0.69140629 v -0.035156 c 0,-0.5273438 0.363282,-0.84375 1.453125,-1.2421875 z m 1.541016,-2.4609375 c 0.05859,-0.035156 0.140625,-0.046875 0.246094,-0.046875 0.246094,0 0.328125,0.140625 0.328125,0.5742188 v 2.22656249 c 0,0.515625 -0.09375,0.6328125 -0.550781,0.6796875 v 0.12890625 h 1.898437 v -0.12890625 c -0.457031,-0.046875 -0.597656,-0.15234375 -0.597656,-0.46875 V -3.1186016 c 0.433594,-0.4101562 0.632812,-0.515625 0.925781,-0.515625 0.445313,0 0.65625,0.28125 0.65625,0.8671875 v 1.87500004 c 0,0.5625 -0.117187,0.71484375 -0.5625,0.76171875 v 0.12890625 h 1.863281 V -0.13032031 C 25.826688,-0.17719531 25.7095,-0.28266406 25.7095,-0.72797656 V -2.7787578 c 0,-0.84375 -0.386719,-1.3476563 -1.054687,-1.3476563 -0.410157,0 -0.691407,0.1523438 -1.300782,0.7265625 v -0.703125 l -0.05859,-0.023437 c -0.445313,0.1640625 -0.75,0.2578125 -1.242188,0.4101563 z m 0,0"
         style="fill:#000000;fill-opacity:1;fill-rule:nonzero;stroke:none" /><path
         id="path84"
         d="m 73.51907,-2.3568828 c -0.08203,-0.1289063 -0.09375,-0.140625 -0.140625,-0.140625 -0.210937,0 -0.667968,0.2929687 -0.667968,0.4453125 0,0.011719 0,0.035156 0.07031,0.1523437 l 1.148438,1.87500004 c 0.03516,0.08203125 0.128906,0.22265625 0.140625,0.234375 0.01172,0.0351563 0.05859,0.0351563 0.105468,0.0351563 0.1875,0 0.609375,-0.24609375 0.65625,-0.43359375 0.28125,-1.34765629 0.808594,-2.62500009 1.617188,-3.73828129 0.457031,-0.6328125 1.066406,-1.3359375 1.957031,-2.0039062 0.152344,-0.1171875 0.257813,-0.1875 0.257813,-0.2695313 0,-0.070312 -0.04687,-0.070312 -0.09375,-0.070312 -0.421875,0 -1.710938,1.21875 -2.214844,1.8164062 -0.914063,1.078125 -1.511719,2.0976563 -1.992188,3.48046884 z m 0,0"
         style="fill:#000000;fill-opacity:1;fill-rule:nonzero;stroke:none" /><path
         id="path85"
         d="m 4.006375,4.8999531 h -0.1875 C 3.7837188,5.0991719 3.67825,5.2046406 3.5259063,5.2046406 c -0.082031,0 -0.234375,-0.035156 -0.3867188,-0.1054687 C 2.7993438,4.9702656 2.4712188,4.8999531 2.1899688,4.8999531 c -0.3867188,0 -0.7851563,0.1523438 -1.078125,0.4101563 -0.3164063,0.28125 -0.4804688,0.65625 -0.4804688,1.125 0,0.7148437 0.3984375,1.21875 1.40625,1.7460937 0.6445313,0.3398438 1.1132813,0.703125 1.3359375,1.0429688 0.082031,0.1171875 0.1171875,0.3046875 0.1171875,0.5273437 0,0.5976564 -0.4453125,1.0078124 -1.1015625,1.0078124 -0.796875,0 -1.359375,-0.492187 -1.8046875,-1.5820311 H 0.3735625 L 0.64309375,11.075734 H 0.8423125 C 0.8540313,10.899953 0.9595,10.782766 1.0884063,10.782766 c 0.1054687,0 0.2578125,0.03516 0.421875,0.09375 0.3398437,0.140625 0.703125,0.210937 1.0664062,0.210937 1.03125,0 1.828125,-0.714844 1.828125,-1.6406249 0,-0.7265625 -0.4921875,-1.3125 -1.6757812,-1.9453125 -0.9492188,-0.5273437 -1.3242188,-0.9140625 -1.3242188,-1.40625 0,-0.4921875 0.375,-0.8320312 0.9375,-0.8320312 0.3984375,0 0.7734375,0.1757812 1.0898438,0.4921875 0.28125,0.2929687 0.3984375,0.5273437 0.5507812,1.0546875 H 4.2055938 Z M 9.2387969,6.9272969 H 8.0317656 v 0.1289062 c 0.2929688,0 0.4335938,0.082031 0.4335938,0.2226563 0,0.035156 -0.011719,0.09375 -0.035156,0.1523437 L 7.5630156,9.9038594 6.5317656,7.6421406 c -0.058594,-0.1289062 -0.09375,-0.2460937 -0.09375,-0.3398437 0,-0.1640625 0.1289063,-0.2226563 0.515625,-0.2460938 V 6.9272969 H 5.1137969 v 0.1171875 c 0.234375,0.046875 0.3867187,0.140625 0.4570312,0.2929687 l 1.0195313,2.203125 0.023437,0.070312 0.140625,0.2695313 c 0.2460937,0.4453126 0.3867187,0.7734376 0.3867187,0.9023446 0,0.140625 -0.1992187,0.703125 -0.3515625,0.972656 -0.1289062,0.234375 -0.328125,0.410156 -0.4453125,0.410156 -0.058594,0 -0.140625,-0.02344 -0.234375,-0.07031 -0.1640625,-0.05859 -0.3164062,-0.09375 -0.46875,-0.09375 -0.2109375,0 -0.3867187,0.175781 -0.3867187,0.386718 0,0.304688 0.28125,0.527344 0.6679687,0.527344 0.5976563,0 1.03125,-0.503906 1.5117188,-1.792969 l 1.382813,-3.6562516 c 0.1171875,-0.2929688 0.2109375,-0.375 0.421875,-0.4101563 z m 0.3691406,0.46875 c 0.058594,-0.035156 0.140625,-0.046875 0.2460938,-0.046875 0.2460937,0 0.3281247,0.140625 0.3281247,0.5742187 v 2.2265624 c 0,0.515625 -0.09375,0.632813 -0.550781,0.679688 v 0.128906 h 1.898438 v -0.128906 c -0.457032,-0.04687 -0.597657,-0.152344 -0.597657,-0.46875 V 7.8413594 c 0.433594,-0.4101563 0.632813,-0.515625 0.925782,-0.515625 0.445312,0 0.65625,0.28125 0.65625,0.8671875 v 1.8750001 c 0,0.5625 -0.117188,0.714844 -0.5625,0.761719 v 0.128906 h 1.863281 v -0.128906 c -0.433594,-0.04687 -0.550781,-0.152344 -0.550781,-0.597657 V 8.1812031 c 0,-0.84375 -0.386719,-1.3476562 -1.054688,-1.3476562 -0.410156,0 -0.691406,0.1523437 -1.300781,0.7265625 v -0.703125 l -0.05859,-0.023437 c -0.445312,0.1640625 -0.75,0.2578125 -1.2421875,0.4101562 z M 16.23782,6.9272969 H 15.335477 V 5.8843281 c 0,-0.09375 -0.01172,-0.1171875 -0.07031,-0.1171875 -0.05859,0.082031 -0.105469,0.1640625 -0.175781,0.2460938 -0.339844,0.5039062 -0.726563,0.9257812 -0.867188,0.9609375 -0.09375,0.070312 -0.152343,0.1289062 -0.152343,0.1757812 0,0.023437 0.01172,0.046875 0.03516,0.058594 h 0.480469 v 2.6953125 c 0,0.7617184 0.257812,1.1484374 0.796875,1.1484374 0.433593,0 0.773437,-0.222656 1.066406,-0.679688 L 16.33157,10.267141 c -0.1875,0.222656 -0.339843,0.316406 -0.527343,0.316406 -0.339844,0 -0.46875,-0.246094 -0.46875,-0.8085939 V 7.2085469 h 0.902343 z m 1.614258,0.9609375 c 0.375,-0.421875 0.644531,-0.5742188 0.996094,-0.5742188 0.445312,0 0.667969,0.328125 0.667969,0.9609375 v 1.7695309 c 0,0.609375 -0.08203,0.726563 -0.609375,0.785157 v 0.128906 h 1.910156 v -0.128906 c -0.492188,-0.09375 -0.539063,-0.164063 -0.539063,-0.785157 V 8.2632344 c 0,-0.9492188 -0.375,-1.4296875 -1.101562,-1.4296875 -0.539063,0 -0.914063,0.2109375 -1.324219,0.75 v -2.71875 l -0.04687,-0.023437 c -0.304687,0.1054687 -0.527344,0.1757812 -1.03125,0.3164062 l -0.234375,0.070312 v 0.140625 c 0.03516,0 0.05859,0 0.105469,0 0.386719,0 0.457031,0.070312 0.457031,0.4570313 v 4.2187496 c 0,0.632813 -0.05859,0.703125 -0.574219,0.785157 v 0.128906 h 1.933594 v -0.128906 c -0.515625,-0.05859 -0.609375,-0.164063 -0.609375,-0.785157 z M 24.5845,9.4937031 c -0.433594,0.6796879 -0.808594,0.9374999 -1.382812,0.9374999 -0.515625,0 -0.902344,-0.257812 -1.160157,-0.7734374 C 21.877469,9.3179219 21.818875,9.0249531 21.795438,8.4741719 h 2.765625 c -0.07031,-0.5859375 -0.164063,-0.84375 -0.386719,-1.125 -0.269531,-0.328125 -0.679688,-0.515625 -1.148438,-0.515625 -0.445312,0 -0.867187,0.1640625 -1.207031,0.46875 -0.421875,0.3632812 -0.667969,1.0078125 -0.667969,1.734375 0,1.2421871 0.644532,2.0156251 1.675782,2.0156251 0.855468,0 1.523437,-0.527344 1.898437,-1.5000001 z M 21.818875,8.1929219 c 0.09375,-0.703125 0.398438,-1.03125 0.949219,-1.03125 0.539062,0 0.761719,0.2460937 0.878906,1.03125 z m 5.375977,-1.265625 H 26.292508 V 5.8843281 c 0,-0.09375 -0.01172,-0.1171875 -0.07031,-0.1171875 -0.05859,0.082031 -0.105468,0.1640625 -0.175781,0.2460938 -0.339844,0.5039062 -0.726562,0.9257812 -0.867187,0.9609375 -0.09375,0.070312 -0.152344,0.1289062 -0.152344,0.1757812 0,0.023437 0.01172,0.046875 0.03516,0.058594 h 0.480469 v 2.6953125 c 0,0.7617184 0.257812,1.1484374 0.796875,1.1484374 0.433594,0 0.773437,-0.222656 1.066406,-0.679688 l -0.117187,-0.105468 c -0.1875,0.222656 -0.339844,0.316406 -0.527344,0.316406 -0.339844,0 -0.46875,-0.246094 -0.46875,-0.8085937 V 7.2085469 h 0.902344 z m 1.77539,-0.09375 -1.394531,0.4921875 v 0.140625 l 0.07031,-0.011719 c 0.117188,-0.023437 0.234375,-0.023437 0.304688,-0.023437 0.222656,0 0.304687,0.140625 0.304687,0.5273438 v 2.0859368 c 0,0.644532 -0.09375,0.738282 -0.714843,0.785157 v 0.128906 h 2.132812 v -0.128906 c -0.597656,-0.04687 -0.667969,-0.140625 -0.667969,-0.785157 V 6.8569844 Z M 28.548367,4.8413594 c -0.246094,0 -0.445312,0.1992187 -0.445312,0.4570312 0,0.2460938 0.1875,0.4570313 0.445312,0.4570313 0.257813,0 0.46875,-0.1992188 0.46875,-0.4570313 0,-0.2578125 -0.210937,-0.4570312 -0.46875,-0.4570312 z m 4.907227,4.7226562 c -0.421875,0.6210934 -0.75,0.8437504 -1.253906,0.8437504 -0.820313,0 -1.394532,-0.7265629 -1.394532,-1.7578129 0,-0.9140625 0.492188,-1.5585937 1.21875,-1.5585937 0.328125,0 0.445313,0.1054687 0.527344,0.4335937 l 0.05859,0.1992188 c 0.07031,0.2460937 0.234375,0.4101562 0.421875,0.4101562 0.234375,0 0.421875,-0.1757812 0.421875,-0.375 0,-0.5039062 -0.621094,-0.9257812 -1.371094,-0.9257812 -0.445312,0 -0.902344,0.1757812 -1.265625,0.5039062 -0.445312,0.3984375 -0.703125,1.0078125 -0.703125,1.7109375 0,1.1718754 0.714844,2.0039064 1.699219,2.0039064 0.410156,0 0.761719,-0.152344 1.089844,-0.421875 0.246093,-0.222656 0.410156,-0.457031 0.679687,-0.9843751 z m 0,0"
         style="fill:#000000;fill-opacity:1;fill-rule:nonzero;stroke:none" /><path
         id="path86"
         d="m 116.35403,8.6030781 c -0.082,-0.1289062 -0.0937,-0.140625 -0.14062,-0.140625 -0.21094,0 -0.66797,0.2929688 -0.66797,0.4453125 0,0.011719 0,0.035156 0.0703,0.1523438 l 1.14844,1.8749996 c 0.0352,0.08203 0.1289,0.222657 0.14062,0.234375 0.0117,0.03516 0.0586,0.03516 0.10547,0.03516 0.1875,0 0.60938,-0.246094 0.65625,-0.433594 0.28125,-1.3476564 0.8086,-2.6250001 1.61719,-3.7382814 0.45703,-0.6328125 1.06641,-1.3359375 1.95703,-2.0039062 0.15234,-0.1171875 0.25781,-0.1875 0.25781,-0.2695313 0,-0.070312 -0.0469,-0.070312 -0.0937,-0.070312 -0.42187,0 -1.71093,1.21875 -2.21484,1.8164063 -0.91406,1.078125 -1.51172,2.0976562 -1.99219,3.4804687 z m 47.82129,0 c -0.082,-0.1289062 -0.0937,-0.140625 -0.14062,-0.140625 -0.21094,0 -0.66797,0.2929688 -0.66797,0.4453125 0,0.011719 0,0.035156 0.0703,0.1523438 l 1.14844,1.8749996 c 0.0352,0.08203 0.1289,0.222657 0.14062,0.234375 0.0117,0.03516 0.0586,0.03516 0.10547,0.03516 0.1875,0 0.60938,-0.246094 0.65625,-0.433594 0.28125,-1.3476564 0.80859,-2.6250001 1.61719,-3.7382814 0.45703,-0.6328125 1.0664,-1.3359375 1.95703,-2.0039062 0.15234,-0.1171875 0.25781,-0.1875 0.25781,-0.2695313 0,-0.070312 -0.0469,-0.070312 -0.0937,-0.070312 -0.42187,0 -1.71094,1.21875 -2.21484,1.8164063 -0.91406,1.078125 -1.51172,2.0976562 -1.99219,3.4804687 z m 0,0"
         style="fill:#000000;fill-opacity:1;fill-rule:nonzero;stroke:none" /><path
         id="path87"
         d="M 5.9048125,21.742727 C 5.5649688,21.719289 5.3891875,21.637258 5.131375,21.33257 L 3.2798125,19.059133 C 3.8774688,18.941945 4.147,18.836477 4.4399688,18.590383 4.7329375,18.356008 4.897,17.981008 4.897,17.559133 4.897,17.172414 4.7915313,16.844289 4.5571563,16.586477 4.2173125,16.211477 3.4673125,15.98882 2.6235625,15.98882 H 0.15090625 v 0.164063 C 0.818875,16.223195 0.912625,16.328664 0.912625,16.961477 v 3.878906 c 0,0.75 -0.09375,0.855469 -0.76171875,0.902344 v 0.175781 H 2.6352813 V 21.742727 C 1.943875,21.70757 1.8266875,21.590383 1.8266875,20.945852 V 19.17632 l 0.5039063,-0.02344 2.1328125,2.765625 h 1.4414062 z m -4.078125,-5.109375 c 0,-0.246094 0.09375,-0.316407 0.4570313,-0.316407 1.125,0 1.640625,0.386719 1.640625,1.230469 0,0.445313 -0.1875,0.820313 -0.515625,0.996094 -0.4101563,0.222656 -0.7265625,0.28125 -1.5820313,0.304687 z m 7.8105469,3.820312 c -0.4335938,0.679688 -0.8085938,0.9375 -1.3828125,0.9375 -0.515625,0 -0.9023438,-0.257812 -1.1601563,-0.773437 C 6.9302031,20.277883 6.8716094,19.984914 6.8481719,19.434133 h 2.765625 c -0.070312,-0.585938 -0.1640625,-0.84375 -0.3867188,-1.125 -0.2695312,-0.328125 -0.6796875,-0.515625 -1.1484375,-0.515625 -0.4453125,0 -0.8671875,0.164062 -1.2070312,0.46875 -0.421875,0.363281 -0.6679688,1.007812 -0.6679688,1.734375 0,1.242187 0.6445313,2.015625 1.6757813,2.015625 0.8554687,0 1.5234375,-0.527344 1.8984375,-1.5 z m -2.765625,-1.300781 c 0.09375,-0.703125 0.3984375,-1.03125 0.9492187,-1.03125 0.5390625,0 0.7617188,0.246094 0.8789063,1.03125 z m 3.2314456,-0.796875 c 0.05859,-0.03516 0.140625,-0.04687 0.246093,-0.04687 0.246094,0 0.328125,0.140625 0.328125,0.574219 v 2.226562 c 0,0.515625 -0.09375,0.632813 -0.550781,0.679688 v 0.128906 h 1.898438 v -0.128906 c -0.457032,-0.04687 -0.597657,-0.152344 -0.597657,-0.46875 V 18.80132 c 0.433594,-0.410156 0.632813,-0.515625 0.925782,-0.515625 0.445312,0 0.65625,0.28125 0.65625,0.867188 v 1.875 c 0,0.5625 -0.117188,0.714844 -0.5625,0.761719 v 0.128906 h 1.863281 v -0.128906 c -0.433594,-0.04687 -0.550781,-0.152344 -0.550781,-0.597657 v -2.050781 c 0,-0.84375 -0.386719,-1.347656 -1.054688,-1.347656 -0.410156,0 -0.691406,0.152344 -1.300781,0.726562 v -0.703125 l -0.05859,-0.02344 c -0.445312,0.164062 -0.75,0.257812 -1.242187,0.410156 z m 7.423828,3.65625 1.324219,-0.46875 v -0.140625 c -0.164063,0 -0.1875,0 -0.210938,0 -0.328125,0 -0.398437,-0.09375 -0.398437,-0.503906 v -5.085938 l -0.03516,-0.01172 c -0.433593,0.152344 -0.75,0.234375 -1.324218,0.386719 v 0.140625 c 0.07031,0 0.128906,0 0.199218,0 0.328125,0 0.410157,0.08203 0.410157,0.457031 v 1.394532 c -0.339844,-0.28125 -0.585938,-0.386719 -0.9375,-0.386719 -1.03125,0 -1.863282,1.019531 -1.863282,2.285156 0,1.148438 0.667969,1.933594 1.652344,1.933594 0.503906,0 0.84375,-0.1875 1.148438,-0.609375 v 0.574219 z m -0.03516,-1.007813 c 0,0.05859 -0.05859,0.175782 -0.152344,0.269532 -0.164063,0.175781 -0.386719,0.269531 -0.644531,0.269531 -0.738282,0 -1.242188,-0.714844 -1.242188,-1.816406 0,-1.019532 0.445313,-1.675782 1.125,-1.675782 0.480469,0 0.914063,0.410157 0.914063,0.890625 z m 5.091796,-0.550781 c -0.433593,0.679688 -0.808593,0.9375 -1.382812,0.9375 -0.515625,0 -0.902344,-0.257812 -1.160156,-0.773437 -0.164063,-0.339844 -0.222657,-0.632813 -0.246094,-1.183594 h 2.765625 c -0.07031,-0.585938 -0.164063,-0.84375 -0.386719,-1.125 -0.269531,-0.328125 -0.679687,-0.515625 -1.148437,-0.515625 -0.445313,0 -0.867188,0.164062 -1.207032,0.46875 -0.421875,0.363281 -0.667968,1.007812 -0.667968,1.734375 0,1.242187 0.644531,2.015625 1.675781,2.015625 0.855469,0 1.523437,-0.527344 1.898437,-1.5 z m -2.765625,-1.300781 c 0.09375,-0.703125 0.398438,-1.03125 0.949219,-1.03125 0.539063,0 0.761719,0.246094 0.878906,1.03125 z m 3.149415,-0.726563 c 0.128906,-0.03516 0.210937,-0.03516 0.316406,-0.03516 0.222656,0 0.304687,0.140625 0.304687,0.527344 v 2.25 c 0,0.445312 -0.05859,0.503906 -0.632812,0.621094 v 0.128906 h 2.144531 v -0.128906 c -0.609375,-0.03516 -0.761719,-0.164063 -0.761719,-0.679688 v -2.015625 c 0,-0.28125 0.386719,-0.738281 0.632813,-0.738281 0.05859,0 0.128906,0.04687 0.234375,0.140625 0.140625,0.117187 0.234375,0.175781 0.351562,0.175781 0.222657,0 0.351563,-0.152344 0.351563,-0.398437 0,-0.304688 -0.1875,-0.480469 -0.492188,-0.480469 -0.375,0 -0.632812,0.210937 -1.078125,0.84375 v -0.820313 l -0.03516,-0.02344 c -0.480469,0.199219 -0.808594,0.316406 -1.335937,0.480469 z m 6.583007,2.027344 c -0.433593,0.679688 -0.808593,0.9375 -1.382812,0.9375 -0.515625,0 -0.902344,-0.257812 -1.160156,-0.773437 -0.164063,-0.339844 -0.222657,-0.632813 -0.246094,-1.183594 h 2.765625 c -0.07031,-0.585938 -0.164063,-0.84375 -0.386719,-1.125 -0.269531,-0.328125 -0.679687,-0.515625 -1.148437,-0.515625 -0.445313,0 -0.867188,0.164062 -1.207032,0.46875 -0.421875,0.363281 -0.667968,1.007812 -0.667968,1.734375 0,1.242187 0.644531,2.015625 1.675781,2.015625 0.855469,0 1.523437,-0.527344 1.898437,-1.5 z m -2.765625,-1.300781 c 0.09375,-0.703125 0.398438,-1.03125 0.949219,-1.03125 0.539063,0 0.761719,0.246094 0.878906,1.03125 z m 6.172852,2.859375 1.324219,-0.46875 v -0.140625 c -0.164063,0 -0.1875,0 -0.210938,0 -0.328125,0 -0.398437,-0.09375 -0.398437,-0.503906 v -5.085938 l -0.03516,-0.01172 c -0.433593,0.152344 -0.75,0.234375 -1.324218,0.386719 v 0.140625 c 0.07031,0 0.128906,0 0.199218,0 0.328125,0 0.410157,0.08203 0.410157,0.457031 v 1.394532 c -0.339844,-0.28125 -0.585938,-0.386719 -0.9375,-0.386719 -1.03125,0 -1.863282,1.019531 -1.863282,2.285156 0,1.148438 0.667969,1.933594 1.652344,1.933594 0.503906,0 0.84375,-0.1875 1.148438,-0.609375 v 0.574219 z m -0.03516,-1.007813 c 0,0.05859 -0.05859,0.175782 -0.152344,0.269532 -0.164063,0.175781 -0.386719,0.269531 -0.644531,0.269531 -0.738282,0 -1.242188,-0.714844 -1.242188,-1.816406 0,-1.019532 0.445313,-1.675782 1.125,-1.675782 0.480469,0 0.914063,0.410157 0.914063,0.890625 z m 0,0"
         style="fill:#000000;fill-opacity:1;fill-rule:nonzero;stroke:none" /><path
         id="path88"
         d="m 73.51907,19.563039 c -0.08203,-0.128906 -0.09375,-0.140625 -0.140625,-0.140625 -0.210937,0 -0.667968,0.292969 -0.667968,0.445313 0,0.01172 0,0.03516 0.07031,0.152343 l 1.148438,1.875 c 0.03516,0.08203 0.128906,0.222657 0.140625,0.234375 0.01172,0.03516 0.05859,0.03516 0.105468,0.03516 0.1875,0 0.609375,-0.246094 0.65625,-0.433594 0.28125,-1.347656 0.808594,-2.625 1.617188,-3.738281 0.457031,-0.632813 1.066406,-1.335938 1.957031,-2.003907 0.152344,-0.117187 0.257813,-0.1875 0.257813,-0.269531 0,-0.07031 -0.04687,-0.07031 -0.09375,-0.07031 -0.421875,0 -1.710938,1.21875 -2.214844,1.816406 -0.914063,1.078125 -1.511719,2.097656 -1.992188,3.480469 z m 90.65332,0 c -0.082,-0.128906 -0.0937,-0.140625 -0.14062,-0.140625 -0.21094,0 -0.66797,0.292969 -0.66797,0.445313 0,0.01172 0,0.03516 0.0703,0.152343 l 1.14844,1.875 c 0.0352,0.08203 0.1289,0.222657 0.14062,0.234375 0.0117,0.03516 0.0586,0.03516 0.10547,0.03516 0.1875,0 0.60938,-0.246094 0.65625,-0.433594 0.28125,-1.347656 0.80859,-2.625 1.61719,-3.738281 0.45703,-0.632813 1.0664,-1.335938 1.95703,-2.003907 0.15234,-0.117187 0.25781,-0.1875 0.25781,-0.269531 0,-0.07031 -0.0469,-0.07031 -0.0937,-0.07031 -0.42187,0 -1.71094,1.21875 -2.21484,1.816406 -0.91406,1.078125 -1.51172,2.097656 -1.99219,3.480469 z m 0,0"
         style="fill:#000000;fill-opacity:1;fill-rule:nonzero;stroke:none" /><path
         id="path89"
         d="M 6.350125,29.699758 H 4.0649688 v 0.164062 c 0.3867187,0.02344 0.4921875,0.05859 0.609375,0.128907 0.1289062,0.08203 0.1875,0.28125 0.1875,0.667968 v 1.453125 c 0,0.28125 -0.5507813,0.527344 -1.1953125,0.527344 -1.4648438,0 -2.3554688,-1.019531 -2.3554688,-2.683594 0,-0.84375 0.2460938,-1.664062 0.6445313,-2.097656 0.3867187,-0.445312 0.9492187,-0.691406 1.5585937,-0.691406 0.5039063,0 0.9375,0.175781 1.2890625,0.503906 0.2695313,0.246094 0.4101563,0.492188 0.6328125,1.03125 H 5.647 L 5.5766875,26.816945 H 5.3774688 c -0.058594,0.164063 -0.2109375,0.292969 -0.3984375,0.292969 -0.09375,0 -0.234375,-0.02344 -0.3984375,-0.09375 -0.4101563,-0.128906 -0.8203125,-0.199219 -1.21875,-0.199219 -1.7929688,0 -3.0820313,1.3125 -3.0820313,3.140625 0,0.878907 0.24609375,1.558594 0.75,2.085938 0.5976563,0.621094 1.4648438,0.960937 2.4492188,0.960937 0.7734375,0 1.8867187,-0.316406 2.25,-0.632812 v -1.816406 c 0,-0.527344 0.1054687,-0.644532 0.6210937,-0.691407 z m 3.779297,1.710937 c -0.4335939,0.679688 -0.8085939,0.9375 -1.3828126,0.9375 -0.515625,0 -0.9023438,-0.257812 -1.1601563,-0.773437 C 7.4223906,31.234914 7.3637969,30.941945 7.3403594,30.391164 h 2.7656246 c -0.07031,-0.585937 -0.1640621,-0.84375 -0.3867184,-1.125 -0.2695312,-0.328125 -0.6796875,-0.515625 -1.1484375,-0.515625 -0.4453125,0 -0.8671875,0.164063 -1.2070312,0.46875 -0.421875,0.363281 -0.6679688,1.007813 -0.6679688,1.734375 0,1.242188 0.6445313,2.015625 1.6757813,2.015625 0.8554687,0 1.5234375,-0.527344 1.8984376,-1.5 z M 7.3637969,30.109914 c 0.09375,-0.703125 0.3984375,-1.03125 0.9492187,-1.03125 0.5390625,0 0.7617188,0.246094 0.8789063,1.03125 z m 3.2314451,-0.796875 c 0.05859,-0.03516 0.140625,-0.04687 0.246094,-0.04687 0.246094,0 0.328125,0.140625 0.328125,0.574219 v 2.226562 c 0,0.515625 -0.09375,0.632813 -0.550781,0.679688 v 0.128906 h 1.898437 v -0.128906 c -0.457031,-0.04687 -0.597656,-0.152344 -0.597656,-0.46875 v -2.519531 c 0.433594,-0.410157 0.632812,-0.515625 0.925781,-0.515625 0.445313,0 0.65625,0.28125 0.65625,0.867187 v 1.875 c 0,0.5625 -0.117187,0.714844 -0.5625,0.761719 v 0.128906 h 1.863281 V 32.746638 C 14.36868,32.699768 14.251492,32.594294 14.251492,32.148982 V 30.0982 c 0,-0.84375 -0.386719,-1.347656 -1.054687,-1.347656 -0.410157,0 -0.691407,0.152344 -1.300782,0.726563 v -0.703125 l -0.05859,-0.02344 c -0.445313,0.164063 -0.75,0.257813 -1.242188,0.410156 z m 5.466797,2.671875 c -0.269531,0 -0.492187,0.222656 -0.492187,0.503906 0,0.257813 0.222656,0.480469 0.480468,0.480469 0.28125,0 0.503907,-0.222656 0.503907,-0.480469 0,-0.28125 -0.222657,-0.503906 -0.492188,-0.503906 z m 6.169922,-4.664062 v 4.476562 c 0,0.761719 -0.09375,0.867188 -0.84375,0.902344 v 0.175781 h 2.625 v -0.175781 c -0.738281,-0.03516 -0.867188,-0.152344 -0.867188,-0.796875 v -4.582031 h 0.492188 c 1.019531,0 1.21875,0.152343 1.417969,1.148437 h 0.222656 l -0.05859,-1.523437 h -5.050781 l -0.05859,1.523437 h 0.210938 c 0.222656,-0.984375 0.421875,-1.148437 1.429687,-1.148437 z m 7.458984,4.324218 -0.117187,-0.04687 c -0.328125,0.515625 -0.445313,0.597657 -0.84375,0.597657 h -2.144531 l 1.5,-1.582032 c 0.808593,-0.832031 1.148437,-1.511718 1.148437,-2.214843 0,-0.890625 -0.726562,-1.582032 -1.652344,-1.582032 -0.492187,0 -0.960937,0.199219 -1.289062,0.550782 -0.292969,0.304687 -0.421875,0.597656 -0.574219,1.230468 l 0.1875,0.04687 c 0.351563,-0.878906 0.679688,-1.171875 1.300781,-1.171875 0.75,0 1.265625,0.515625 1.265625,1.265625 0,0.703125 -0.421875,1.535157 -1.171875,2.332032 l -1.59375,1.699218 v 0.105469 h 3.492188 z m 1.259766,0.257813 c 0,0.667969 -0.117188,0.773437 -0.867188,0.796875 v 0.175781 h 2.660157 v -0.175781 c -0.738282,-0.02344 -0.878907,-0.152344 -0.878907,-0.796875 v -3.984375 c 0,-0.65625 0.128907,-0.773438 0.878907,-0.808594 v -0.164062 h -2.660157 v 0.164062 c 0.761719,0.04687 0.867188,0.140625 0.867188,0.808594 z m 0,0"
         style="fill:#000000;fill-opacity:1;fill-rule:nonzero;stroke:none" /><path
         id="path90"
         d="m 73.51907,30.52007 c -0.08203,-0.128906 -0.09375,-0.140625 -0.140625,-0.140625 -0.210937,0 -0.667968,0.292969 -0.667968,0.445313 0,0.01172 0,0.03516 0.07031,0.152344 l 1.148438,1.875 c 0.03516,0.08203 0.128906,0.222656 0.140625,0.234375 0.01172,0.03516 0.05859,0.03516 0.105468,0.03516 0.1875,0 0.609375,-0.246094 0.65625,-0.433594 0.28125,-1.347656 0.808594,-2.625 1.617188,-3.738281 0.457031,-0.632813 1.066406,-1.335938 1.957031,-2.003906 0.152344,-0.117188 0.257813,-0.1875 0.257813,-0.269532 0,-0.07031 -0.04687,-0.07031 -0.09375,-0.07031 -0.421875,0 -1.710938,1.21875 -2.214844,1.816406 -0.914063,1.078125 -1.511719,2.097656 -1.992188,3.480469 z m 42.83496,0 c -0.082,-0.128906 -0.0937,-0.140625 -0.14062,-0.140625 -0.21094,0 -0.66797,0.292969 -0.66797,0.445313 0,0.01172 0,0.03516 0.0703,0.152344 l 1.14844,1.875 c 0.0352,0.08203 0.1289,0.222656 0.14062,0.234375 0.0117,0.03516 0.0586,0.03516 0.10547,0.03516 0.1875,0 0.60938,-0.246094 0.65625,-0.433594 0.28125,-1.347656 0.8086,-2.625 1.61719,-3.738281 0.45703,-0.632813 1.06641,-1.335938 1.95703,-2.003906 0.15234,-0.117188 0.25781,-0.1875 0.25781,-0.269532 0,-0.07031 -0.0469,-0.07031 -0.0937,-0.07031 -0.42187,0 -1.71093,1.21875 -2.21484,1.816406 -0.91406,1.078125 -1.51172,2.097656 -1.99219,3.480469 z m 0,0"
         style="fill:#000000;fill-opacity:1;fill-rule:nonzero;stroke:none" /><path
         id="path91"
         d="m 3.2329375,37.776906 c -1.7109375,0 -2.9296875,1.289063 -2.9296875,3.09375 0,0.84375 0.28125,1.652344 0.7734375,2.179688 0.515625,0.5625 1.3125,0.914062 2.109375,0.914062 1.7578125,0 2.9765625,-1.253906 2.9765625,-3.058593 0,-0.890625 -0.2578125,-1.652344 -0.75,-2.191407 -0.5625,-0.621093 -1.3125,-0.9375 -2.1796875,-0.9375 z m 0,0.316407 c 0.4101563,0 0.8320313,0.164062 1.1484375,0.457031 0.4804688,0.433594 0.7617188,1.277344 0.7617188,2.34375 0,0.527344 -0.1171875,1.148437 -0.2929688,1.617187 -0.082031,0.222657 -0.234375,0.445313 -0.4453125,0.65625 -0.3046875,0.304688 -0.7148437,0.46875 -1.1835937,0.46875 -0.421875,0 -0.8203125,-0.164062 -1.1367188,-0.433593 -0.46875,-0.421875 -0.7617187,-1.324219 -0.7617187,-2.320313 0,-0.914062 0.2578125,-1.78125 0.6328125,-2.203125 0.3515625,-0.386719 0.7851562,-0.585937 1.2773437,-0.585937 z m 7.5292965,5.296875 h -0.03516 c -0.421875,0 -0.515625,-0.105469 -0.515625,-0.515625 V 39.80425 H 8.7934844 v 0.152344 c 0.5625,0.02344 0.6679687,0.117187 0.6679687,0.5625 v 2.109375 c 0,0.246094 -0.046875,0.375 -0.1757812,0.46875 -0.234375,0.199219 -0.515625,0.304687 -0.7851563,0.304687 -0.3515625,0 -0.6328125,-0.304687 -0.6328125,-0.679687 V 39.80425 h -1.3125 v 0.117188 c 0.4335938,0.03516 0.5507813,0.164062 0.5507813,0.574218 v 2.261719 c 0,0.714844 0.4335937,1.171875 1.0898437,1.171875 0.328125,0 0.6796875,-0.152344 0.9257813,-0.386719 l 0.3867187,-0.386718 v 0.738281 l 0.035156,0.02344 c 0.4453125,-0.175781 0.7617189,-0.28125 1.2187499,-0.410156 z m 0.251954,-3.046875 c 0.128906,-0.03516 0.210937,-0.03516 0.316406,-0.03516 0.222656,0 0.304687,0.140625 0.304687,0.527344 v 2.25 c 0,0.445313 -0.05859,0.503906 -0.632812,0.621094 V 43.8355 H 13.147 v -0.128906 c -0.609375,-0.03516 -0.761719,-0.164063 -0.761719,-0.679688 v -2.015625 c 0,-0.28125 0.386719,-0.738281 0.632813,-0.738281 0.05859,0 0.128906,0.04687 0.234375,0.140625 0.140625,0.117188 0.234375,0.175781 0.351562,0.175781 0.222657,0 0.351563,-0.152343 0.351563,-0.398437 0,-0.304688 -0.1875,-0.480469 -0.492188,-0.480469 -0.375,0 -0.632812,0.210938 -1.078125,0.84375 v -0.820312 l -0.03516,-0.02344 c -0.480469,0.199219 -0.808594,0.316406 -1.335937,0.480469 z m 5.753906,0.679687 -0.03516,-1.21875 h -0.105469 l -0.01172,0.01172 c -0.08203,0.07031 -0.09375,0.07031 -0.128906,0.07031 -0.04687,0 -0.140625,-0.01172 -0.234375,-0.05859 -0.199219,-0.07031 -0.398438,-0.105469 -0.632813,-0.105469 -0.703125,0 -1.21875,0.457031 -1.21875,1.101562 0,0.503907 0.28125,0.855469 1.054688,1.289063 l 0.515625,0.292969 c 0.316406,0.1875 0.46875,0.398437 0.46875,0.679687 0,0.386719 -0.292969,0.644531 -0.75,0.644531 -0.304688,0 -0.585938,-0.117187 -0.75,-0.316406 -0.1875,-0.222656 -0.269531,-0.433594 -0.386719,-0.9375 H 14.41262 v 1.394531 h 0.117188 c 0.05859,-0.09375 0.09375,-0.105468 0.199218,-0.105468 0.08203,0 0.210938,0.01172 0.421875,0.07031 0.246094,0.05859 0.492188,0.09375 0.644532,0.09375 0.691406,0 1.265625,-0.527344 1.265625,-1.148437 0,-0.457032 -0.210938,-0.75 -0.75,-1.066407 l -0.972657,-0.574218 c -0.246093,-0.152344 -0.386718,-0.375 -0.386718,-0.609375 0,-0.363282 0.28125,-0.609375 0.691406,-0.609375 0.515625,0 0.785156,0.304687 0.984375,1.101562 z m 0,0"
         style="fill:#000000;fill-opacity:1;fill-rule:nonzero;stroke:none" /><path
         id="path92"
         d="m 73.51907,41.480031 c -0.08203,-0.128906 -0.09375,-0.140625 -0.140625,-0.140625 -0.210937,0 -0.667968,0.292969 -0.667968,0.445313 0,0.01172 0,0.03516 0.07031,0.152344 l 1.148438,1.875 c 0.03516,0.08203 0.128906,0.222656 0.140625,0.234375 0.01172,0.03516 0.05859,0.03516 0.105468,0.03516 0.1875,0 0.609375,-0.246094 0.65625,-0.433594 0.28125,-1.347656 0.808594,-2.625 1.617188,-3.738281 0.457031,-0.632813 1.066406,-1.335938 1.957031,-2.003906 0.152344,-0.117188 0.257813,-0.1875 0.257813,-0.269532 0,-0.07031 -0.04687,-0.07031 -0.09375,-0.07031 -0.421875,0 -1.710938,1.21875 -2.214844,1.816406 -0.914063,1.078125 -1.511719,2.097656 -1.992188,3.480469 z m 42.83496,0 c -0.082,-0.128906 -0.0937,-0.140625 -0.14062,-0.140625 -0.21094,0 -0.66797,0.292969 -0.66797,0.445313 0,0.01172 0,0.03516 0.0703,0.152344 l 1.14844,1.875 c 0.0352,0.08203 0.1289,0.222656 0.14062,0.234375 0.0117,0.03516 0.0586,0.03516 0.10547,0.03516 0.1875,0 0.60938,-0.246094 0.65625,-0.433594 0.28125,-1.347656 0.8086,-2.625 1.61719,-3.738281 0.45703,-0.632813 1.06641,-1.335938 1.95703,-2.003906 0.15234,-0.117188 0.25781,-0.1875 0.25781,-0.269532 0,-0.07031 -0.0469,-0.07031 -0.0937,-0.07031 -0.42187,0 -1.71093,1.21875 -2.21484,1.816406 -0.91406,1.078125 -1.51172,2.097656 -1.99219,3.480469 z m 47.82129,0 c -0.082,-0.128906 -0.0937,-0.140625 -0.14062,-0.140625 -0.21094,0 -0.66797,0.292969 -0.66797,0.445313 0,0.01172 0,0.03516 0.0703,0.152344 l 1.14844,1.875 c 0.0352,0.08203 0.1289,0.222656 0.14062,0.234375 0.0117,0.03516 0.0586,0.03516 0.10547,0.03516 0.1875,0 0.60938,-0.246094 0.65625,-0.433594 0.28125,-1.347656 0.80859,-2.625 1.61719,-3.738281 0.45703,-0.632813 1.0664,-1.335938 1.95703,-2.003906 0.15234,-0.117188 0.25781,-0.1875 0.25781,-0.269532 0,-0.07031 -0.0469,-0.07031 -0.0937,-0.07031 -0.42187,0 -1.71094,1.21875 -2.21484,1.816406 -0.91406,1.078125 -1.51172,2.097656 -1.99219,3.480469 z m 0,0"
         style="fill:#000000;fill-opacity:1;fill-rule:nonzero;stroke:none" /></g><path
       id="path93"
       d="m -541.46028,294.48102 h 265.31066"
       style="fill:none;stroke:#000000;stroke-width:1.06267;stroke-linecap:butt;stroke-linejoin:miter;stroke-miterlimit:10;stroke-dasharray:none;stroke-opacity:1" /></g></svg>
